<?xml version="1.0" standalone="no"?><svg xmlns="http://www.w3.org/2000/svg" viewBox="0 0 1440 320"><path fill="#ca10ff" fill-opacity="0.1" d="M0,256L21.8,240C43.6,224,87,192,131,181.3C174.5,171,218,181,262,208C305.5,235,349,277,393,298.7C436.4,320,480,320,524,277.3C567.3,235,611,149,655,133.3C698.2,117,742,171,785,202.7C829.1,235,873,245,916,245.3C960,245,1004,235,1047,208C1090.9,181,1135,139,1178,144C1221.8,149,1265,203,1309,192C1352.7,181,1396,107,1418,69.3L1440,32L1440,320L1418.2,320C1396.4,320,1353,320,1309,320C1265.5,320,1222,320,1178,320C1134.5,320,1091,320,1047,320C1003.6,320,960,320,916,320C872.7,320,829,320,785,320C741.8,320,698,320,655,320C610.9,320,567,320,524,320C480,320,436,320,393,320C349.1,320,305,320,262,320C218.2,320,175,320,131,320C87.3,320,44,320,22,320L0,320Z"></path></svg>